<svg width="782" height="1061" viewBox="0 0 782 1061" fill="none"
    xmlns="http://www.w3.org/2000/svg">
    <path d="M11.9125 228.913L50.6623 123.059C69.3278 72.0694 109.23 31.7958 161.37 16.6399C321.559 -29.9233 678.141 -109.141 858.909 42.68C1077.13 225.957 974.894 691.976 905.143 926.721C884.484 996.249 801.062 1018.78 745.037 972.716C701.968 937.302 638.854 941.194 600.463 981.631L570.422 1013.27C527.053 1058.95 460.137 1073.42 401.773 1049.73L305.122 1010.5C278.353 999.635 249.194 996.015 220.582 1000.01C111.585 1015.2 18.7202 921.11 35.3528 812.323L72.2349 571.093C77.3699 537.507 73.1566 503.156 60.0572 471.806L14.9409 363.835C-3.02182 320.846 -4.10334 272.664 11.9125 228.913Z" fill="#65837E"/>
</svg>
